<svg width="24" height="24" viewBox="0 0 24 24" fill="none" xmlns="http://www.w3.org/2000/svg">
<path d="M21.555 8.16782L12.555 2.16782C12.3908 2.05839 12.1978 2 12.0005 2C11.8032 2 11.6102 2.05839 11.446 2.16782L2.446 8.16782C2.3089 8.25905 2.19645 8.38273 2.11865 8.52788C2.04084 8.67302 2.00009 8.83513 2 8.99982V19.9998C2 21.1028 2.897 21.9998 4 21.9998H20C21.103 21.9998 22 21.1028 22 19.9998V8.99982C22 8.66582 21.833 8.35382 21.555 8.16782ZM12 4.20182L19.197 8.99982L12 13.7978L4.803 8.99982L12 4.20182ZM4 19.9998V10.8688L11.445 15.8318C11.6093 15.9415 11.8025 16 12 16C12.1975 16 12.3907 15.9415 12.555 15.8318L20 10.8688L19.997 19.9998H4Z" fill="#1E5B8A"/>
</svg>
