<svg width="16" height="16" viewBox="0 0 16 16" fill="none" xmlns="http://www.w3.org/2000/svg">
<path d="M2.81448 13.1851C3.12373 13.4948 3.49112 13.7404 3.89556 13.9076C4.29999 14.0749 4.73349 14.1606 5.17115 14.1598C5.6089 14.1606 6.04249 14.0749 6.44703 13.9076C6.85157 13.7403 7.21908 13.4948 7.52848 13.1851L9.41381 11.2991L8.47115 10.3565L6.58581 12.2425C6.21013 12.6165 5.70159 12.8265 5.17148 12.8265C4.64136 12.8265 4.13283 12.6165 3.75715 12.2425C3.38281 11.867 3.17262 11.3584 3.17262 10.8281C3.17262 10.2979 3.38281 9.78933 3.75715 9.41381L5.64315 7.52848L4.70048 6.58581L2.81448 8.47115C2.19035 9.09678 1.83984 9.94443 1.83984 10.8281C1.83984 11.7119 2.19035 12.5595 2.81448 13.1851V13.1851ZM13.1851 7.52848C13.8089 6.90267 14.1592 6.05509 14.1592 5.17148C14.1592 4.28787 13.8089 3.44029 13.1851 2.81448C12.5595 2.19035 11.7119 1.83984 10.8281 1.83984C9.94443 1.83984 9.09678 2.19035 8.47115 2.81448L6.58581 4.70048L7.52848 5.64315L9.41381 3.75715C9.7895 3.38314 10.298 3.17316 10.8281 3.17316C11.3583 3.17316 11.8668 3.38314 12.2425 3.75715C12.6168 4.13266 12.827 4.64126 12.827 5.17148C12.827 5.7017 12.6168 6.2103 12.2425 6.58581L10.3565 8.47115L11.2991 9.41381L13.1851 7.52848Z" fill="#1E5B8A"/>
<path d="M5.64255 11.3002L4.69922 10.3575L10.3572 4.7002L11.2999 5.64353L5.64255 11.3002Z" fill="#1E5B8A"/>
</svg>
